<?xml version="1.0" encoding="UTF-8"?><!DOCTYPE svg PUBLIC "-//W3C//DTD SVG 1.1 Tiny//EN" "http://www.w3.org/Graphics/SVG/1.1/DTD/svg11-tiny.dtd"><svg baseProfile="tiny" xmlns="http://www.w3.org/2000/svg" width="509.424" height="56.753" preserveAspectRatio="xMaxYMax meet" viewBox="0 0 509.424 56.753"><g id="icon-editor-contrast" transform="translate(0,0)"><path fill="#231F20" d="M-19.462-3.96c6.595 0 11.96 5.365 11.96 11.96s-5.365 11.96-11.96 11.96-11.96-5.365-11.96-11.96 5.365-11.96 11.96-11.96m0-4c-8.814 0-15.96 7.145-15.96 15.96 0 8.813 7.146 15.96 15.96 15.96S-3.502 16.813-3.502 8c0-8.815-7.146-15.96-15.96-15.96z"/><path d="M-19.462 16.33c4.706 0 8.52-3.812 8.52-8.52 0-4.704-3.813-8.518-8.52-8.518"/></g><g id="icon-editor-crop" transform="translate(31.92,0)"><path d="M0 0h48v48H0V0z" fill="none"/><path d="M34 30h4V14c0-2.21-1.79-4-4-4H18v4h16v16zm-20 4V2h-4v8H2v4h8v20c0 2.21 1.79 4 4 4h20v8h4v-8h8v-4H14z"/></g><g id="icon-editor-fill" transform="translate(79.92,0)"><path d="M0 0h48v48H0V0z" fill="none"/><path d="M33.12 17.88L15.24 0l-2.83 2.83 4.76 4.76L6.88 17.88c-1.17 1.17-1.17 3.07 0 4.24l11 11c.58.59 1.35.88 2.12.88s1.54-.29 2.12-.88l11-11c1.17-1.17 1.17-3.07 0-4.24zM10.41 20L20 10.42 29.59 20H10.41zM38 23s-4 4.33-4 7c0 2.21 1.79 4 4 4s4-1.79 4-4c0-2.67-4-7-4-7zM0 40h48v3H0z"/></g><g id="icon-facebook" transform="translate(127.92,0)"><path d="M6.275 3.357h2.398V0H5.795C2.655.18 1.54 2.387 1.948 6.115H0v3.517h1.958v9.312h3.837V9.632h2.857V6.115H5.786c-.02-1.045-.036-2.406.49-2.758z"/></g><g id="icon-heart" transform="translate(136.593,0)"><path d="M528.174 485.055c-.212 0-.412-.09-.552-.25-3.798-4.323-4.644-5.297-4.858-5.57h-.004c-.53-.676-.82-1.52-.82-2.374 0-2.094 1.703-3.798 3.798-3.798.934 0 1.804.32 2.484.898.696-.578 1.56-.898 2.463-.898 2.095 0 3.8 1.704 3.8 3.8 0 .908-.32 1.753-.897 2.38l-4.86 5.56c-.14.162-.342.253-.554.253zm-4.245-6.706c.207.254 2.47 2.838 4.242 4.857l4.323-4.944c.34-.37.52-.86.52-1.4 0-1.284-1.045-2.33-2.33-2.33-.73 0-1.42.344-1.9.943-.142.178-.353.267-.585.275-.227-.002-.44-.11-.575-.293-.44-.587-1.13-.925-1.887-.925-1.285 0-2.33 1.046-2.33 2.33 0 .68.275 1.172.507 1.468.004.006.01.012.014.02z"/></g><g id="icon-mail" transform="translate(149.13799999999998,0)"><path fill="#fff" d="M14.914 1.814C16.11.816 15.816 0 14.257 0H3.73c-1.56 0-1.853.816-.656 1.814l3.742 3.118c1.197.998 3.158.998 4.355 0l3.744-3.118zM11.913 7.044c-1.198.998-2.195 1.825-2.218 1.836l-.02.013c-.074.056-.152.102-.235.136-.033.014-.066.033-.1.047-.11.034-.223.058-.335.06h-.022c-.113-.003-.224-.026-.335-.06-.034-.014-.068-.033-.1-.048-.083-.035-.16-.08-.235-.137l-.02-.013c-.022-.012-1.02-.838-2.218-1.836L2.178 3.796C.978 2.798 0 3.256 0 4.816v6.315c0 1.56 1.275 2.836 2.835 2.836h12.318c1.56 0 2.835-1.275 2.835-2.835V4.817c0-1.56-.98-2.018-2.178-1.02l-3.897 3.248z"/></g><g id="icon-map-marker" transform="translate(167.12599999999998,0)"><circle fill="#fff" cx="17.991" cy="17.991" r="17.991"/><circle fill="#D22856" cx="17.991" cy="17.991" r="7.866"/></g><g id="icon-menu-burger" transform="translate(203.10899999999998,0)"><path fill="#fff" d="M1.137 0C.51 0 0 .428 0 1.01v1.98C0 3.55.494 4 1.14 4h47.67c.628 0 1.138-.427 1.138-1.01V1.01c0-.558-.494-1.01-1.138-1.01H1.137zm0 10.003C.51 10.003 0 10.43 0 11.013v1.98c0 .557.494 1.01 1.14 1.01h47.67c.628 0 1.138-.428 1.138-1.01v-1.98c0-.558-.494-1.01-1.138-1.01H1.137zm0 10.002c-.627 0-1.137.43-1.137 1.01v1.982c0 .557.494 1.01 1.14 1.01h47.67c.628 0 1.138-.428 1.138-1.01v-1.98c0-.56-.494-1.012-1.138-1.012H1.137z"/><path fill="#fff" d="M1.137 0C.51 0 0 .428 0 1.01v1.98C0 3.55.494 4 1.14 4h47.67c.628 0 1.138-.427 1.138-1.01V1.01c0-.558-.494-1.01-1.138-1.01H1.137zm0 10.003C.51 10.003 0 10.43 0 11.013v1.98c0 .557.494 1.01 1.14 1.01h47.67c.628 0 1.138-.428 1.138-1.01v-1.98c0-.558-.494-1.01-1.138-1.01H1.137zm0 10.002c-.627 0-1.137.43-1.137 1.01v1.982c0 .557.494 1.01 1.14 1.01h47.67c.628 0 1.138-.428 1.138-1.01v-1.98c0-.56-.494-1.012-1.138-1.012H1.137z"/></g><g id="icon-menu-cross" transform="translate(253.05399999999997,0)"><path fill="#fff" d="M15.087 11.933l8.56-8.56c.293-.292.293-.767 0-1.06L21.554.22c-.14-.14-.33-.22-.53-.22s-.392.08-.53.22l-8.56 8.56L3.373.22c-.283-.282-.78-.282-1.062 0L.22 2.313c-.293.293-.293.768 0 1.06l8.56 8.56-8.56 8.56c-.293.292-.293.767 0 1.06l2.093 2.095c.14.142.33.22.53.22s.39-.078.53-.22l8.56-8.56 8.56 8.56c.142.142.333.22.53.22.2 0 .39-.078.53-.22l2.094-2.094c.293-.294.293-.77 0-1.062l-8.56-8.56z"/></g><g id="icon-no" transform="translate(276.921,0)"><path d="M15.497 13.376L26.312 2.562c.586-.585.586-1.535 0-2.12s-1.535-.587-2.12 0L13.375 11.254 2.562.44c-.586-.587-1.535-.587-2.12 0-.587.584-.587 1.534 0 2.12l10.813 10.815L.44 24.19c-.587.586-.587 1.535 0 2.12.292.294.676.44 1.06.44s.768-.146 1.06-.44l10.816-10.813L24.19 26.312c.293.293.677.44 1.06.44s.77-.147 1.062-.44c.586-.586.586-1.535 0-2.12L15.497 13.375z"/></g><g id="icon-phone" transform="translate(303.673,0)"><path fill="#fff" d="M9.848 0C6.34 0 2.823.628 1.546 1.878.488 2.918.134 4.752.016 5.913c0 0-.016.115-.016.165 0 .454.37.82.82.82.053 0 2.027-.16 3.217-.26.03-.003.058-.007.086-.016.443-.012.8-.372.8-.82l.004-1.616c0-.5.407-.902.907-.902h8.027c.5 0 .908.402.908.902l.003 1.617c0 .447.357.808.803.82.027.01.056.013.085.017 1.19.098 3.164.26 3.217.26.45 0 .822-.367.822-.82 0-.05-.018-.166-.018-.166-.12-1.16-.473-2.995-1.53-4.035C16.872.627 13.355 0 9.847 0zm0 10.67c-.908 0-1.643.733-1.643 1.64 0 .907.734 1.64 1.643 1.64.906 0 1.64-.732 1.64-1.64 0-.906-.734-1.64-1.64-1.64zM8.616 6.975V5.95c0-.566-.46-1.025-1.025-1.025s-1.023.46-1.023 1.026v1.025L1.03 12.888c-.382.376-.62.894-.62 1.47v1.646c0 .907.735 1.643 1.642 1.643h.41v1.023c0 .568.46 1.026 1.027 1.026.564 0 1.023-.458 1.023-1.026v-1.023h10.67v1.023c0 .568.46 1.026 1.024 1.026.567 0 1.026-.458 1.026-1.026v-1.023h.41c.906 0 1.64-.735 1.64-1.643v-1.646c0-.576-.235-1.094-.617-1.47L13.13 6.975V5.95c0-.566-.46-1.025-1.024-1.025-.567 0-1.027.46-1.027 1.026v1.025H8.615zm1.232 2.053c1.814 0 3.282 1.468 3.282 3.282s-1.468 3.282-3.282 3.282c-1.813 0-3.28-1.468-3.28-3.282s1.466-3.282 3.28-3.282z"/></g><g id="icon-twitter" transform="translate(323.37,0)"><path fill-rule="evenodd" clip-rule="evenodd" d="M11.283.153c1.736-.485 3.074.263 3.685 1.15.694-.225 1.372-.47 2.072-.69-.004.84-.538 1.478-.883 1.727.704.166 1.343-.48 1.343-.48-.175.976-1.035 1.746-1.61 1.977-.24 6.592-3.273 10.956-10.383 10.823h-.46c-.422 0-4.29-.45-5.047-1.843 2.34.192 4.01-.412 4.835-1.15-.99-.293-2.76-.464-3.07-2.88.362.104.583.222 1.228.116C1.757 8.067.385 7.366.46 5.218c.295.32 1.1.523 1.382.46C1.117 5.445-.188 2.4.922.844c1.872 1.81 3.847 3.52 7.368 3.685.216-2.24 1.17-3.74 2.993-4.375z"/></g><g id="icon-yes" transform="translate(340.87,0)"><path d="M-60.953 5.167c-.39-.39-1.023-.39-1.414 0L-75.75 18.55l-4.9-4.9c-.39-.39-1.023-.39-1.414 0s-.39 1.024 0 1.415l5.607 5.607c.195.195.45.293.707.293s.512-.098.707-.293l14.09-14c.39-.48.39-1.114 0-1.505z"/></g><g id="icon-youtube" transform="translate(362.568,0)"><path d="M1.775 13.78C.8 14.257 0 13.758 0 12.67V1.29C0 .202.8-.295 1.775.18l12.133 5.933c.975.478.975 1.258 0 1.736L1.775 13.78z"/></g><g id="logo-android" transform="translate(377.20799999999997,0)"><path fill="#A4C639" d="M34.144 14.01h-26.2c-.008.11-.017.22-.017.332v18.755c0 1.926 1.457 3.49 3.316 3.627v7.43c0 1.594 1.29 2.885 2.885 2.885 1.593 0 2.885-1.292 2.885-2.886v-7.42h8.058v7.42c0 1.594 1.292 2.885 2.886 2.885 1.595 0 2.886-1.292 2.886-2.886V36.72c1.858-.137 3.315-1.7 3.315-3.627v-18.75c0-.114-.004-.224-.013-.334z"/><path fill="#A4C639" d="M2.886 15.68c1.593 0 2.886 1.29 2.886 2.884v12.378c0 1.595-1.292 2.886-2.886 2.886S0 32.538 0 30.942V18.564c0-1.594 1.292-2.885 2.886-2.885z"/><path fill="#A4C639" d="M39.198 15.68c1.595 0 2.886 1.29 2.886 2.884v12.378c0 1.595-1.29 2.886-2.886 2.886-1.594 0-2.885-1.29-2.885-2.886V18.564c0-1.594 1.29-2.885 2.885-2.885z"/><path fill="#A4C639" d="M8.03 11.967h26.026c-.04-2.783-1.234-5.322-3.187-7.275L33.314.457c.082-.146.03-.33-.112-.415-.146-.084-.33-.034-.415.11L30.416 4.26c-2.052-1.853-6.25-3.4-9.374-3.4-3.016 0-7.322 1.547-9.374 3.4L9.296.152c-.083-.145-.27-.194-.415-.11-.144.083-.194.27-.11.414l2.445 4.235c-1.95 1.955-3.147 4.494-3.185 7.277zm17.293-5.163c-.002-.805.664-1.46 1.488-1.462.827-.002 1.495.648 1.5 1.454v.008c0 .805-.665 1.46-1.49 1.462-.824.002-1.494-.65-1.497-1.454v-.008zm-11.143 0c0-.805.665-1.46 1.49-1.462.823-.002 1.493.648 1.496 1.454v.008c.002.805-.664 1.46-1.488 1.462-.825.002-1.495-.65-1.498-1.454v-.008z"/></g><g id="logo-apple" transform="translate(419.292,0)"><path fill="#fff" d="M38.593 30.15c.08 8.59 7.535 11.447 7.617 11.483-.062.202-1.19 4.073-3.927 8.072-2.365 3.457-4.82 6.9-8.688 6.973-3.8.07-5.02-2.253-9.365-2.253-4.344 0-5.702 2.182-9.298 2.32-3.733.142-6.576-3.74-8.96-7.184-4.876-7.045-8.6-19.91-3.598-28.592 2.484-4.313 6.925-7.043 11.743-7.114 3.666-.07 7.126 2.466 9.366 2.466 2.24 0 6.444-3.05 10.865-2.6 1.85.076 7.044.746 10.38 5.628-.27.17-6.197 3.623-6.135 10.802m-7.14-21.088c1.982-2.4 3.316-5.74 2.952-9.062-2.857.115-6.312 1.904-8.36 4.302-1.837 2.123-3.445 5.52-3.01 8.778 3.183.246 6.435-1.62 8.418-4.018"/></g><g id="logo-microsoft" transform="translate(465.50199999999995,0)"><path fill="#F05423" d="M20.874 19.953H0V0h20.874v19.953z"/><path fill="#84C441" d="M43.922 19.953H23.05V0H43.92v19.953z"/><path fill="#2DABE2" d="M20.873 41.992H0V22.04h20.873v19.952z"/><path fill="#F9BC15" d="M43.922 41.992H23.05V22.04H43.92v19.952z"/></g></svg>